<svg width="80" height="80" viewBox="0 0 80 80" fill="none" xmlns="http://www.w3.org/2000/svg">
<g filter="url(#filter0_d_848_385)">
<path d="M57.75 22.1854C53 17.5937 46.75 15 40.0938 15C20.9896 15 8.99375 35.6979 18.5333 52.1625L15 65L28.1979 61.5583C33.9479 64.6646 38.6583 64.3896 40.1062 64.5729C62.2583 64.5729 73.2854 37.7729 57.7187 22.2667L57.75 22.1854Z" fill="white"/>
<path d="M40.1396 60.3153L40.1271 60.3132H40.0938C33.4646 60.3132 29.2292 57.1736 28.8125 56.9924L21 59.0236L23.0937 51.4299L22.5958 50.6486C20.5333 47.3653 19.4375 43.584 19.4375 39.6903C19.4375 21.3715 41.8229 12.2111 54.7771 25.159C67.7 37.9715 58.6271 60.3153 40.1396 60.3153Z" fill="#4CAF50"/>
<path d="M51.4732 44.8065L51.4545 44.9628C50.8274 44.6503 47.7732 43.1565 47.2045 42.9503C45.9274 42.4774 46.2878 42.8753 43.8357 45.6836C43.4711 46.0899 43.1086 46.1211 42.4899 45.8399C41.8649 45.5274 39.8586 44.8711 37.4836 42.7461C35.6336 41.0899 34.392 39.0586 34.0253 38.4336C33.4149 37.3794 34.692 37.2294 35.8545 35.0294C36.0628 34.5919 35.9565 34.2482 35.8024 33.9378C35.6461 33.6253 34.4024 30.5628 33.8815 29.3419C33.3815 28.1253 32.867 28.2794 32.4815 28.2794C31.2815 28.1753 30.4045 28.1919 29.6315 28.9961C26.269 32.6919 27.117 36.5044 29.994 40.5586C35.6482 47.9586 38.6607 49.3211 44.169 51.2128C45.6565 51.6857 47.0128 51.619 48.0857 51.4649C49.2815 51.2753 51.767 49.9628 52.2857 48.494C52.817 47.0253 52.817 45.8065 52.6607 45.5253C52.5065 45.244 52.0982 45.0878 51.4732 44.8065Z" fill="white"/>
</g>
<defs>
<filter id="filter0_d_848_385" x="0" y="0" width="80" height="80" filterUnits="userSpaceOnUse" color-interpolation-filters="sRGB">
<feFlood flood-opacity="0" result="BackgroundImageFix"/>
<feColorMatrix in="SourceAlpha" type="matrix" values="0 0 0 0 0 0 0 0 0 0 0 0 0 0 0 0 0 0 127 0" result="hardAlpha"/>
<feOffset/>
<feGaussianBlur stdDeviation="7.5"/>
<feComposite in2="hardAlpha" operator="out"/>
<feColorMatrix type="matrix" values="0 0 0 0 0.2 0 0 0 0 0.2 0 0 0 0 0.2 0 0 0 0.5 0"/>
<feBlend mode="normal" in2="BackgroundImageFix" result="effect1_dropShadow_848_385"/>
<feBlend mode="normal" in="SourceGraphic" in2="effect1_dropShadow_848_385" result="shape"/>
</filter>
</defs>
</svg>
